<svg width="294" height="51" viewBox="0 0 294 51" fill="none" xmlns="http://www.w3.org/2000/svg">
<path d="M294 16C294 11.0294 289.971 7 285 7H250.198C248.578 7 246.987 6.56255 245.595 5.73382L238.089 1.26618C236.696 0.437451 235.106 0 233.485 0H9C4.02945 0 0 4.02944 0 9V42C0 46.9706 4.02945 51 9 51H285C289.971 51 294 46.9706 294 42L294 16Z" fill="url(#paint0_linear_116_312)"/>
<path d="M293.5 16C293.5 11.3056 289.694 7.5 285 7.5H250.198C248.488 7.5 246.809 7.03825 245.339 6.16347L237.833 1.69584C236.518 0.913148 235.016 0.5 233.485 0.5H9C4.3056 0.5 0.5 4.30558 0.5 9V42C0.5 46.6944 4.3056 50.5 9 50.5H285C289.694 50.5 293.5 46.6944 293.5 42V16Z" stroke="white" stroke-opacity="0.35"/>
<defs>
<linearGradient id="paint0_linear_116_312" x1="-12.25" y1="101" x2="158.202" y2="-43.0849" gradientUnits="userSpaceOnUse">
<stop stop-color="#024084"/>
<stop offset="1" stop-color="#0077B6"/>
</linearGradient>
</defs>
</svg>
