<svg width="203" height="51" viewBox="0 0 203 51" fill="none" xmlns="http://www.w3.org/2000/svg">
<path d="M203 16C203 11.0294 198.971 7 194 7H159.198C157.578 7 155.987 6.56255 154.595 5.73382L147.089 1.26618C145.696 0.437451 144.106 0 142.485 0H9.00002C4.02945 0 0 4.02944 0 9V42C0 46.9706 4.02943 51 9 51H194C198.971 51 203 46.9706 203 42L203 16Z" fill="url(#paint0_linear_180_287)"/>
<path d="M202.5 16C202.5 11.3056 198.694 7.5 194 7.5H159.198C157.488 7.5 155.809 7.03825 154.339 6.16347L146.833 1.69584C145.518 0.913148 144.016 0.5 142.485 0.5H9.00002C4.30559 0.5 0.5 4.30558 0.5 9V42C0.5 46.6944 4.30557 50.5 9 50.5H194C198.694 50.5 202.5 46.6944 202.5 42V16Z" stroke="white" stroke-opacity="0.35"/>
<defs>
<linearGradient id="paint0_linear_180_287" x1="-103.25" y1="101" x2="67.2017" y2="-43.0849" gradientUnits="userSpaceOnUse">
<stop stop-color="#024084"/>
<stop offset="1" stop-color="#0077B6"/>
</linearGradient>
</defs>
</svg>
