<svg width="23" height="25" viewBox="0 0 23 25" fill="none" xmlns="http://www.w3.org/2000/svg">
<g id="mdi:twitter">
<path id="Vector" d="M21.5242 6.24984C20.7862 6.61442 19.9908 6.854 19.1667 6.96859C20.01 6.4165 20.6617 5.5415 20.9683 4.48942C20.1729 5.01025 19.2912 5.37484 18.3617 5.58317C17.6046 4.68734 16.5408 4.1665 15.3333 4.1665C13.0812 4.1665 11.2412 6.1665 11.2412 8.63525C11.2412 8.98942 11.2796 9.33317 11.3467 9.65609C7.935 9.46859 4.89708 7.68734 2.875 4.98942C2.52041 5.64567 2.31916 6.4165 2.31916 7.229C2.31916 8.78109 3.03791 10.1561 4.14958 10.9373C3.46916 10.9373 2.83666 10.729 2.28083 10.4165V10.4478C2.28083 12.6144 3.69916 14.4269 5.5775 14.8332C4.97444 15.0126 4.34134 15.0375 3.72791 14.9061C3.9882 15.7941 4.49797 16.5711 5.18555 17.1279C5.87314 17.6847 6.70397 17.9933 7.56125 18.0103C6.10806 19.2607 4.30674 19.9366 2.45333 19.9269C2.1275 19.9269 1.80166 19.9061 1.47583 19.8644C3.29666 21.1353 5.4625 21.8748 7.78166 21.8748C15.3333 21.8748 19.4829 15.0623 19.4829 9.15609C19.4829 8.95817 19.4829 8.77067 19.4733 8.57275C20.2783 7.94775 20.9683 7.15609 21.5242 6.24984Z" fill="white"/>
</g>
</svg>
